<svg version="1.2" baseProfile="tiny-ps" xmlns="http://www.w3.org/2000/svg" viewBox="0 0 210 203" width="210" height="203">
	<title>schedy5-svg</title>
	<style>
		tspan { white-space:pre }
		.shp0 { fill: #f9f9f9 } 
		.shp1 { fill: #4f1903 } 
		.shp2 { fill: #501803 } 
		.shp3 { fill: #893021 } 
	</style>
	<g id="layer1">
		<g id="g437">
			<path id="path14" fill-rule="evenodd" class="shp0" d="M107.34 198.86L9.23 127.58L46.7 12.24L167.97 12.24L205.45 127.58L107.34 198.86Z" />
		</g>
	</g>
	<g id="layer2">
		<g id="g166">
			<g id="Layer 1">
				<path id="rect121" class="shp1" d="M58.76 48.03C58.76 50.97 61.17 53.35 64.14 53.35L150.29 53.35C153.26 53.35 155.67 50.97 155.67 48.03L155.67 35.17C155.67 32.23 153.26 29.84 150.29 29.84L64.14 29.84C61.17 29.84 58.76 32.23 58.76 35.17L58.76 48.03Z" />
				<path id="rect123" class="shp2" d="M58.76 74.28C58.76 80.79 64.1 86.07 70.68 86.07L70.68 86.07C77.26 86.07 82.59 80.79 82.59 74.28L82.59 41.63C82.59 35.12 77.26 29.84 70.68 29.84L70.68 29.84C64.1 29.84 58.76 35.12 58.76 41.63L58.76 74.28Z" />
				<path id="rect125" class="shp2" d="M58.78 96.52C58.78 99.4 61.14 101.73 64.05 101.73L150.4 101.73C153.31 101.73 155.67 99.4 155.67 96.52L155.67 75.04C155.67 72.16 153.31 69.82 150.4 69.82L64.05 69.82C61.14 69.82 58.78 72.16 58.78 75.04L58.78 96.52Z" />
				<path id="rect127" class="shp3" d="M131.92 125.21C131.92 128.9 134.94 131.89 138.66 131.89L148.92 131.89C152.65 131.89 155.67 128.9 155.67 125.21L155.67 108.41C155.67 104.72 152.65 101.73 148.92 101.73L138.66 101.73C134.94 101.73 131.92 104.72 131.92 108.41L131.92 125.21Z" />
				<path id="path143" fill-rule="evenodd" class="shp3" d="M70.82 142.59C70.82 141.32 71.85 140.29 73.13 140.29L91.1 140.29C92.38 140.29 93.41 139.27 93.41 138L93.41 137.89C93.41 136.62 92.38 135.59 91.1 135.59L61.28 135.59C60.01 135.59 58.97 134.56 58.97 133.3L58.97 133.18C58.97 131.92 60.01 130.89 61.28 130.89L83.3 130.89C84.58 130.89 85.62 129.86 85.62 128.6L85.62 128.48C85.62 127.22 84.58 126.19 83.3 126.19L77.77 126.19L77.77 126.19L64.58 126.19C63.3 126.19 62.27 125.16 62.27 123.89L62.27 123.78C62.27 122.51 63.3 121.48 64.58 121.48L119.22 121.48C119.27 121.48 119.31 121.48 119.35 121.49L119.35 121.49C119.35 121.49 119.35 121.49 119.35 121.49L119.29 121.49L119.38 121.49C119.37 121.49 119.36 121.49 119.35 121.49L119.36 121.49L150.42 121.48C153.32 121.48 155.67 123.82 155.67 126.69L155.67 139.79C155.67 142.66 153.32 145 150.42 145L73.13 145C71.85 145 70.82 143.97 70.82 142.7L70.82 142.59ZM119.38 121.49C119.38 121.49 119.38 121.49 119.39 121.49L119.38 121.49Z" />
			</g>
		</g>
	</g>
</svg>